<svg xmlns="http://www.w3.org/2000/svg" width="696.726" height="466.172" viewBox="0 0 696.726 466.172"><g transform="translate(-891 -284)"><g transform="translate(423 1332.005)"><path d="M440.85,133.486c-44.65-1.55-87.177-15.968-127.789-31.739S232.227,68.5,188.638,60.148c-28.028-5.378-60.088-6.138-82.675,8.892C84.228,83.5,77.207,108.466,73.428,131.634c-2.84,17.432-4.508,35.771,3.273,52.091,5.4,11.325,15,20.846,21.612,31.7C121.4,253.18,105.1,299.732,80.06,336.6c-11.732,17.29-25.354,33.789-34.406,52.2s-13.227,39.5-5.267,58.309c7.854,18.611,26.552,32.591,46.849,42.427,41.149,19.939,89.677,25.657,137,28.892,104.75,7.163,210.062,4.063,315.091.957,38.865-1.155,77.908-2.316,116.143-8.33,21.235-3.334,43.156-8.645,58.575-21.421,19.568-16.234,24.422-43.724,11.306-64.083-21.995-34.147-82.811-42.607-98.18-79.273-8.466-20.167.229-42.637,12.529-61.341,26.379-40.137,70.6-75.333,72.925-121.206,1.605-31.492-19.655-63.058-52.523-77.964C625.639,70.145,577.87,72.108,552.449,97.975,526.273,124.607,480.277,134.851,440.85,133.486Z" transform="translate(432.035 -1104.63)" fill="#e9efeb"/><ellipse cx="9.429" cy="9.429" rx="9.429" ry="9.429" transform="translate(1096.495 -798.124)" fill="#e9efeb"/><ellipse cx="15.808" cy="15.808" rx="15.808" ry="15.808" transform="translate(1123.85 -846.553)" fill="#e9efeb" opacity="0.1"/><ellipse cx="15.808" cy="15.808" rx="15.808" ry="15.808" transform="translate(1102.923 -769.849)" fill="#e9efeb"/><ellipse cx="22.384" cy="22.384" rx="22.384" ry="22.384" transform="translate(468 -857.007)" fill="#e9efeb"/></g><g transform="translate(1043.002 403)"><rect width="33.559" height="21.462" transform="translate(244.537 183.675)" fill="#f47721"/><rect width="33.559" height="21.462" transform="translate(244.537 146.675)" fill="#f47721"/><rect width="33.559" height="21.462" transform="translate(244.537 78.675)" fill="#f47721"/><rect width="33.559" height="21.462" transform="translate(192.537 112.675)" fill="#f47721"/><rect width="33.559" height="21.462" transform="translate(244.827 48.115)" fill="#363949"/><rect width="33.559" height="21.462" transform="translate(244.827 115.115)" fill="#363949"/><rect width="33.559" height="21.462" transform="translate(192.537 148.675)" fill="#363949"/><path d="M510.171,191.139V145.483H484.806V115.827h-17.17v29.657H442.272v45.656H428.224V88.511H399.738V78.756H361.886V69H324.425v9.756h-35.51v9.756H258.087V190.749H241.7V145.093H216.334V115.436h-17.17v29.657H173.8v45.656H157.41V352.691h37.461V295.329h25.755v57.363H321.3V285.963h43.7v66.728h60.875v.39h37.461V295.719H489.1v57.363H526.56V191.139Zm-339.3,19.511H185.7v11.707H170.873Zm.2,32.779H185.9v11.707H171.068Zm15.024,44.485H171.263V276.208h14.828Zm38.827-105.75h-34.34V175.14h34.34Zm0-10.146h-34.34v-7.024h34.34Zm0-10.146h-34.34v-7.024h34.34Zm4.878,48.778h14.828v11.707H229.8Zm.2,32.779H244.82v11.707H229.991Zm15.024,44.485H230.186V276.208h14.828Zm60.68-19.511H278.379v-12.1h27.316Zm0-34.73H278.379v-12.1h27.316Zm0-34.73H278.379v-12.1h27.316Zm0-34.73H278.379v-12.1h27.316Zm0-34.73H278.379v-12.1h27.316ZM356.813,268.4H329.5v-12.1h27.316Zm0-34.73H329.5v-12.1h27.316Zm0-34.73H329.5v-12.1h27.316Zm0-34.73H329.5v-12.1h27.316Zm0-34.73H329.5v-12.1h27.316ZM407.932,268.4H380.617v-12.1h27.316Zm0-34.73H380.617v-12.1h27.316Zm0-34.73H380.617v-12.1h27.316Zm0-34.73H380.617v-12.1h27.316Zm0-34.73H380.617v-12.1h27.316Zm31.413,81.556h14.828v11.707H439.345Zm.2,32.779h14.828v11.707H439.54ZM454.564,288.3H439.736V276.6h14.828Zm38.827-105.75h-34.34v-7.024h34.34Zm0-10.146h-34.34v-7.024h34.34Zm0-10.146h-34.34v-7.024h34.34Zm4.878,48.778H513.1v11.707H498.269Zm.2,32.779h14.828v11.707H498.464ZM513.487,288.3H498.659V276.6h14.828Z" transform="translate(-133.679 -69)" fill="#a08972"/><path d="M215.744,688.836c-.109,1.544-.28,3.27-.544,5.085l4.771-5.291.026.089a13.9,13.9,0,0,0-1.4-3.641l.031.084Z" transform="translate(-168.918 -444.67)" fill="#6c63ff"/><path d="M216.642,684.149l2.8-3.56a7.323,7.323,0,0,0-2.5-2.667c-.051-.031-.1-.059-.154-.088C216.8,678.255,216.871,680.723,216.642,684.149Z" transform="translate(-169.798 -440.254)" fill="#6c63ff"/><path d="M209.579,722.227q-.184.561-.381,1.1l7.026-4.119.01.1q.22-.961.367-1.922l-7.015,4.882Z" transform="translate(-165.259 -464.375)" fill="#6c63ff"/><path d="M212.678,704.9l6.328-5.219.018.1a21.856,21.856,0,0,0-.543-5.13l-4.862,5.392Q213.236,702.592,212.678,704.9Z" transform="translate(-167.381 -450.509)" fill="#6c63ff"/><path d="M200.206,694.855l-7.572-8.448.041-.1a18.247,18.247,0,0,0-1.817,3.2l8.64,9.2C199.795,697.366,200.026,696.067,200.206,694.855Z" transform="translate(-154.075 -445.423)" fill="#6c63ff"/><path d="M190.649,694.845h0c.014-.031.026-.065.039-.1Z" transform="translate(-153.948 -450.568)" fill="#6c63ff"/><path d="M189.508,697.651l-.039.1c.012-.033.027-.063.039-.1Z" transform="translate(-153.228 -452.338)" fill="#6c63ff"/><path d="M198.663,704.228,189.991,695q-.22.5-.421,1.036l8.863,9.173Q198.553,704.714,198.663,704.228Z" transform="translate(-153.289 -450.719)" fill="#6c63ff"/><path d="M217.324,711.6a26.1,26.1,0,0,0,.282-3.507l-6.413,5.289q-.381,1.539-.839,2.958l6.957-4.841Z" transform="translate(-165.963 -458.703)" fill="#6c63ff"/><path d="M186.479,713.642l7.02,9.158a31.4,31.4,0,0,0,1.525-3.439l-8.565-9a25.249,25.249,0,0,0-.028,3.38Z" transform="translate(-151.349 -460.091)" fill="#6c63ff"/><path d="M209.278,676.875l.063-.028a4.952,4.952,0,0,0-4.8.1l4.6,6.244C209.389,679.485,209.279,676.913,209.278,676.875Z" transform="translate(-162.421 -439.303)" fill="#6c63ff"/><path d="M206.461,727.143a31.177,31.177,0,0,1-1.379,3.1l7.061-3.653.007.1a12.366,12.366,0,0,0,1.238-2.864q.168-.592.307-1.187l-7.11,4.169C206.544,726.921,206.5,727.033,206.461,727.143Z" transform="translate(-162.749 -467.576)" fill="#6c63ff"/><path d="M203.7,684.583,199,678.2l.044-.091a10.524,10.524,0,0,0-3.387,3.125l7.51,8.379C203.428,687.816,203.6,686.109,203.7,684.583Z" transform="translate(-157.002 -440.419)" fill="#6c63ff"/><path d="M195.246,711.708a42.359,42.359,0,0,0,1.337-4.36l-8.885-9.2q-.317.862-.583,1.792a15.179,15.179,0,0,0-.49,2.72l8.614,9.048Z" transform="translate(-151.494 -452.644)" fill="#6c63ff"/><path d="M226.381,756.639c-1.069,1.119-2.3,2.34-3.662,3.569l7.049-1.032-.036.085a13.9,13.9,0,0,0,1.248-3.694l-.03.084Z" transform="translate(-173.504 -487.653)" fill="#6c63ff"/><path d="M236.783,745.746c-.02-.056-.041-.111-.063-.166-.256.334-1.774,2.281-4.136,4.773l4.425-.958A7.324,7.324,0,0,0,236.783,745.746Z" transform="translate(-179.519 -481.563)" fill="#6c63ff"/><path d="M203.233,781.234q-.5.315-1,.606l8.039,1.308-.058.086q.782-.6,1.508-1.246l-8.517-.714Z" transform="translate(-161.013 -503.305)" fill="#6c63ff"/><path d="M212.37,769.453l8.2.017-.048.087a21.858,21.858,0,0,0,2.854-4.3l-7.183,1.052Q214.273,768.03,212.37,769.453Z" transform="translate(-167.193 -493.564)" fill="#6c63ff"/><path d="M205.283,778.194l8.446.708-.054.086a26.1,26.1,0,0,0,2.454-2.521l-8.313-.017Q206.541,777.392,205.283,778.194Z" transform="translate(-162.871 -500.388)" fill="#6c63ff"/><path d="M164.982,746.934l.186-.19a21.712,21.712,0,0,0,5.012-1.432l.23-6.087q.1-.232.2-.468l-.244,6.478a31.393,31.393,0,0,0,3.368-1.676l-.784-11.316.184-.1.783,11.3h.008a42.332,42.332,0,0,0,3.81-2.505l-.854-11.135.181-.133.854,11.135q.406-.3.8-.605l-.7-11.272.181-.149.705,11.281c1.084-.845,2.091-1.7,3-2.517l-.443-11.336.092-.048c-.315.082-.635.179-.957.286a16,16,0,0,0,1.631-2.224l-7.128,3.688a23.973,23.973,0,0,1-1.661,2.705c-.127.12-.255.24-.38.366l.009.135c-.058.077-.116.154-.175.229l-.013-.182c-.09.092-.178.19-.267.285a22.526,22.526,0,0,0,2.366-3.617L168,718.744c.048.813.127,1.631.229,2.442a13.749,13.749,0,0,0-2.336-2.854l.055.07-1.61,4.388c.373,1.5.745,3.2,1.054,5l2.862-6.417c.013.1.027.2.041.3l-2.855,6.4q.424,2.543.607,4.912l3.427-5.382.059.231-3.464,5.44q.113,1.581.117,3.073l4.189-5.526.066.213-4.233,5.585-.021-.043q0,.591-.021,1.166l4.725-5.32.07.2-4.807,5.412c0,.119-.009.238-.015.356a31.194,31.194,0,0,1-.353,3.375l.456-.462q-.13.269-.252.53l-.259.263c-.03.171-.064.338-.1.506q-.144.315-.277.615c.086-.384.166-.77.234-1.159l-9.437-6.492a58.221,58.221,0,0,0,7.4,12.671c.241-.45.46-.913.661-1.386l.175-.017c-.024.058-.049.115-.074.173l-.089.011.075.021c-.142.33-.288.655-.446.969.206-.185.52-.478.895-.849,2.219.566,8.2,1.778,13.316-.012l-7.843-1.706A21.931,21.931,0,0,1,164.982,746.934Zm5.511-9.924.188-.19-.011.285-.188.19Z" transform="translate(-132.915 -464.948)" fill="#6c63ff"/><path d="M236.483,740.722l.066.018a4.952,4.952,0,0,0-3.758-2.983l-.442,7.742C234.9,742.8,236.461,740.752,236.483,740.722Z" transform="translate(-179.376 -476.794)" fill="#6c63ff"/><path d="M196.035,783.347a31.206,31.206,0,0,1-3.04,1.509l7.768,1.69-.059.083a12.369,12.369,0,0,0,2.78-1.417q.507-.349.994-.719l-8.135-1.324Z" transform="translate(-155.379 -504.485)" fill="#6c63ff"/><path d="M221.9,748.971c1.344-1.216,2.562-2.423,3.618-3.529l.452-7.919.092-.042a10.525,10.525,0,0,0-4.6.247Z" transform="translate(-172.737 -476.535)" fill="#6c63ff"/><path d="M175.683,715.379a7.323,7.323,0,0,0-3.2-1.762c-.058-.013-.116-.025-.174-.036.145.4.977,2.72,1.818,6.049Z" transform="translate(-142.762 -462.051)" fill="#6c63ff"/><path d="M163.135,734.084l-9.812-5.694.009-.1a18.246,18.246,0,0,0-.739,3.6l11.061,6.078C163.52,736.6,163.338,735.291,163.135,734.084Z" transform="translate(-130.742 -471.019)" fill="#6c63ff"/><path d="M152.545,737.885h0c0-.034,0-.07.007-.1Z" transform="translate(-130.713 -476.808)" fill="#6c63ff"/><path d="M152.328,740.906l-.007.1c0-.035.006-.069.007-.1Z" transform="translate(-130.576 -478.714)" fill="#6c63ff"/><path d="M163.521,744.148l-11.1-6.1q-.053.547-.08,1.116l11.264,5.984Q163.567,744.643,163.521,744.148Z" transform="translate(-130.588 -476.97)" fill="#6c63ff"/><path d="M164.344,759.833l-10.926-5.908a25.254,25.254,0,0,0,1.018,3.223l.014-.113,9.507,6.54A31.385,31.385,0,0,0,164.344,759.833Z" transform="translate(-131.245 -486.652)" fill="#6c63ff"/><path d="M164.986,713.468l.051-.046A4.952,4.952,0,0,0,160.506,715l6.3,4.518C165.9,715.916,165,713.5,164.986,713.468Z" transform="translate(-135.567 -461.906)" fill="#6c63ff"/><path d="M163.253,722.474l-6.447-4.621.014-.1a10.524,10.524,0,0,0-2.255,4.019l9.732,5.648C163.989,725.633,163.622,723.958,163.253,722.474Z" transform="translate(-131.944 -464.595)" fill="#6c63ff"/><path d="M163.649,752a42.362,42.362,0,0,0-.076-4.559l-11.293-6q-.035.917,0,1.885a15.181,15.181,0,0,0,.375,2.738l10.989,5.942Z" transform="translate(-130.54 -479.042)" fill="#6c63ff"/><path d="M1071.74,685.836c-.109,1.544-.28,3.27-.544,5.085l4.771-5.291.026.089a13.906,13.906,0,0,0-1.4-3.641l.031.084Z" transform="translate(-690.886 -442.841)" fill="#6c63ff"/><path d="M1072.64,681.149l2.8-3.56a7.321,7.321,0,0,0-2.5-2.666c-.051-.031-.1-.059-.154-.088C1072.8,675.255,1072.87,677.723,1072.64,681.149Z" transform="translate(-691.767 -438.425)" fill="#6c63ff"/><path d="M1065.575,719.227q-.185.561-.381,1.1l7.026-4.119.01.1q.22-.961.367-1.922l-7.015,4.882Z" transform="translate(-687.226 -462.546)" fill="#6c63ff"/><path d="M1068.68,701.9l6.328-5.219.018.1a21.858,21.858,0,0,0-.543-5.13l-4.862,5.392Q1069.238,699.592,1068.68,701.9Z" transform="translate(-689.352 -448.68)" fill="#6c63ff"/><path d="M1056.2,691.855l-7.572-8.448.041-.1a18.246,18.246,0,0,0-1.817,3.2l8.64,9.2C1055.793,694.366,1056.023,693.067,1056.2,691.855Z" transform="translate(-676.043 -443.594)" fill="#6c63ff"/><path d="M1046.65,691.845h0c.014-.031.026-.065.039-.1Z" transform="translate(-675.918 -448.738)" fill="#6c63ff"/><path d="M1054.66,701.229,1045.989,692q-.22.5-.421,1.036l8.863,9.173Q1054.551,701.714,1054.66,701.229Z" transform="translate(-675.258 -448.889)" fill="#6c63ff"/><path d="M1045.509,694.651l-.039.1c.012-.033.027-.063.039-.1Z" transform="translate(-675.199 -450.508)" fill="#6c63ff"/><path d="M1073.328,708.6a26.086,26.086,0,0,0,.282-3.507l-6.413,5.289q-.381,1.539-.839,2.958l6.957-4.841Z" transform="translate(-687.936 -456.873)" fill="#6c63ff"/><path d="M1042.476,710.642l7.02,9.158a31.4,31.4,0,0,0,1.525-3.439l-8.565-9a25.263,25.263,0,0,0-.028,3.38Z" transform="translate(-673.317 -458.261)" fill="#6c63ff"/><path d="M1065.273,673.875l.063-.028a4.952,4.952,0,0,0-4.8.1l4.6,6.244A61.924,61.924,0,0,0,1065.273,673.875Z" transform="translate(-684.388 -437.474)" fill="#6c63ff"/><path d="M1062.456,724.143a31.174,31.174,0,0,1-1.379,3.1l7.061-3.653.007.1a12.369,12.369,0,0,0,1.238-2.865q.168-.592.307-1.187l-7.11,4.169C1062.542,723.921,1062.5,724.033,1062.456,724.143Z" transform="translate(-684.716 -465.746)" fill="#6c63ff"/><path d="M1059.7,681.583,1055,675.2l.044-.091a10.524,10.524,0,0,0-3.387,3.125l7.51,8.379C1059.425,684.816,1059.593,683.109,1059.7,681.583Z" transform="translate(-678.97 -438.589)" fill="#6c63ff"/><path d="M1051.249,708.708a42.346,42.346,0,0,0,1.337-4.36l-8.885-9.2q-.317.862-.583,1.792a15.177,15.177,0,0,0-.49,2.72l8.614,9.048Z" transform="translate(-673.466 -450.814)" fill="#6c63ff"/><path d="M1082.377,753.639c-1.069,1.119-2.3,2.34-3.662,3.569l7.049-1.032-.036.085a13.906,13.906,0,0,0,1.248-3.694l-.03.084Z" transform="translate(-695.471 -485.824)" fill="#6c63ff"/><path d="M1092.779,742.746c-.02-.056-.041-.111-.063-.166-.256.334-1.774,2.281-4.136,4.773l4.425-.958A7.325,7.325,0,0,0,1092.779,742.746Z" transform="translate(-701.486 -479.734)" fill="#6c63ff"/><path d="M1059.233,778.234q-.5.315-1,.606l8.039,1.308-.058.086q.782-.6,1.508-1.246l-8.517-.714Z" transform="translate(-682.983 -501.475)" fill="#6c63ff"/><path d="M1068.37,766.453l8.2.017-.049.087a21.854,21.854,0,0,0,2.854-4.3l-7.183,1.052Q1070.274,765.03,1068.37,766.453Z" transform="translate(-689.163 -491.734)" fill="#6c63ff"/><path d="M1061.28,775.194l8.446.708-.054.086a26.125,26.125,0,0,0,2.454-2.521l-8.313-.017Q1062.54,774.392,1061.28,775.194Z" transform="translate(-684.84 -498.558)" fill="#6c63ff"/><path d="M1020.979,743.934l.186-.19a21.714,21.714,0,0,0,5.012-1.432l.229-6.087q.1-.232.2-.468l-.244,6.478a31.358,31.358,0,0,0,3.368-1.676l-.784-11.316.184-.1.783,11.3h.008a42.356,42.356,0,0,0,3.81-2.505l-.854-11.135.182-.133.854,11.135q.406-.3.8-.605l-.7-11.272.181-.149.7,11.281c1.084-.845,2.092-1.7,3-2.517l-.443-11.336.092-.048c-.315.082-.635.179-.957.286a16,16,0,0,0,1.631-2.224l-7.128,3.688a23.973,23.973,0,0,1-1.661,2.705c-.127.12-.255.24-.38.366l.009.135c-.058.077-.116.154-.175.229l-.013-.182c-.09.092-.178.19-.267.285a22.525,22.525,0,0,0,2.366-3.617L1024,715.744c.048.813.127,1.631.229,2.442a13.755,13.755,0,0,0-2.336-2.854l.055.07-1.61,4.388c.373,1.5.745,3.2,1.054,5l2.862-6.417c.013.1.027.2.041.3l-2.855,6.4q.424,2.543.607,4.912l3.427-5.382.059.231-3.463,5.44q.113,1.581.117,3.073l4.189-5.526.066.213-4.233,5.585-.021-.043q0,.591-.021,1.166l4.725-5.32.07.2-4.807,5.411c0,.119-.009.238-.015.356a31.2,31.2,0,0,1-.353,3.375l.456-.462q-.13.269-.252.53l-.26.263c-.03.171-.064.338-.1.506q-.144.315-.277.615c.086-.384.166-.77.234-1.159l-9.437-6.492a58.221,58.221,0,0,0,7.4,12.671c.241-.45.46-.913.661-1.386l.175-.017c-.024.058-.049.115-.074.173l-.089.011.075.021c-.142.33-.288.655-.446.969.206-.185.52-.478.895-.849,2.219.566,8.2,1.778,13.316-.012l-7.843-1.706A21.928,21.928,0,0,1,1020.979,743.934Zm5.511-9.924.188-.19-.011.285-.188.191Z" transform="translate(-654.883 -463.119)" fill="#6c63ff"/><path d="M1092.481,737.722l.066.018a4.952,4.952,0,0,0-3.758-2.983l-.442,7.742A61.908,61.908,0,0,0,1092.481,737.722Z" transform="translate(-701.345 -474.964)" fill="#6c63ff"/><path d="M1052.03,780.347a31.191,31.191,0,0,1-3.04,1.509l7.768,1.69-.059.083a12.366,12.366,0,0,0,2.78-1.417q.507-.349.994-.719l-8.135-1.324C1052.237,780.229,1052.136,780.289,1052.03,780.347Z" transform="translate(-677.346 -502.656)" fill="#6c63ff"/><path d="M1077.9,745.97c1.344-1.216,2.562-2.423,3.618-3.529l.452-7.919.092-.042a10.525,10.525,0,0,0-4.6.247Z" transform="translate(-694.708 -474.706)" fill="#6c63ff"/><path d="M1031.682,712.379a7.323,7.323,0,0,0-3.2-1.763c-.058-.013-.116-.025-.174-.036.144.4.977,2.72,1.818,6.049Z" transform="translate(-664.731 -460.222)" fill="#6c63ff"/><path d="M1019.136,731.084l-9.812-5.694.009-.1a18.239,18.239,0,0,0-.739,3.6l11.06,6.078C1019.523,733.6,1019.339,732.291,1019.136,731.084Z" transform="translate(-652.713 -469.189)" fill="#6c63ff"/><path d="M1008.329,737.906l-.007.1c0-.035.006-.069.007-.1Z" transform="translate(-652.547 -476.884)" fill="#6c63ff"/><path d="M1008.54,734.885h0c0-.034,0-.07.007-.1Z" transform="translate(-652.68 -474.979)" fill="#6c63ff"/><path d="M1019.517,741.148l-11.1-6.1q-.053.547-.08,1.116l11.265,5.984Q1019.564,741.643,1019.517,741.148Z" transform="translate(-652.555 -475.141)" fill="#6c63ff"/><path d="M1020.346,756.833l-10.926-5.908a25.244,25.244,0,0,0,1.018,3.223l.014-.113,9.507,6.54a31.393,31.393,0,0,0,.388-3.742Z" transform="translate(-653.216 -484.823)" fill="#6c63ff"/><path d="M1020.99,710.468l.051-.046A4.952,4.952,0,0,0,1016.51,712l6.3,4.518C1021.9,712.916,1021,710.5,1020.99,710.468Z" transform="translate(-657.539 -460.077)" fill="#6c63ff"/><path d="M1019.253,719.474l-6.447-4.621.014-.1a10.524,10.524,0,0,0-2.255,4.019l9.732,5.648C1019.991,722.633,1019.624,720.958,1019.253,719.474Z" transform="translate(-653.915 -462.766)" fill="#6c63ff"/><path d="M1019.647,749a42.366,42.366,0,0,0-.076-4.559l-11.292-6q-.036.917,0,1.885a15.188,15.188,0,0,0,.375,2.738l10.989,5.942Z" transform="translate(-652.509 -477.213)" fill="#6c63ff"/><path d="M60.812,727h369.15v5.282a8.376,8.376,0,0,1-8.376,8.376H69.187a8.376,8.376,0,0,1-8.376-8.376Z" transform="translate(-37.083 -443.309)" fill="#2f2e41"/><rect width="369.15" height="7.414" transform="translate(23.729 279.399)" fill="#3f3d56"/><path d="M888.8,120.406l4.24,2.689-2.574-4.68a4.192,4.192,0,0,1,2.564-.915h.068a4.915,4.915,0,0,0,.88-.065l1.437.911-.616-1.12a5.114,5.114,0,0,0,2.514-1.908l2.572,1.631L898.263,114a7.526,7.526,0,0,1,5.762-2.912,7.9,7.9,0,0,1,6.594,4.068,4.929,4.929,0,0,0,4.359,2.35l.144,0c2.952,0,5.345,3.347,5.345,7.476s-2.393,7.476-5.346,7.476a4.012,4.012,0,0,1-1.862-.466,7.714,7.714,0,0,0-6.47-.126,6.744,6.744,0,0,1-5.5.013,7.719,7.719,0,0,0-6.413.124,4.009,4.009,0,0,1-1.842.456c-2.952,0-5.345-3.347-5.345-7.476a9.492,9.492,0,0,1,1.116-4.57Z" transform="translate(-578.986 -94.662)" fill="#fff"/><path d="M336.681,181.977l2.7,1.71-1.637-2.977a2.667,2.667,0,0,1,1.631-.582h.043a3.122,3.122,0,0,0,.56-.041l.914.58-.392-.712a3.253,3.253,0,0,0,1.6-1.213l1.636,1.037L342.7,177.9a4.787,4.787,0,0,1,3.665-1.852,5.024,5.024,0,0,1,4.195,2.588,3.136,3.136,0,0,0,2.773,1.495l.091,0c1.878,0,3.4,2.129,3.4,4.756s-1.522,4.756-3.4,4.756a2.552,2.552,0,0,1-1.184-.3,4.907,4.907,0,0,0-4.116-.08,4.29,4.29,0,0,1-3.5.008,4.911,4.911,0,0,0-4.079.079,2.549,2.549,0,0,1-1.172.29c-1.878,0-3.4-2.129-3.4-4.756A6.038,6.038,0,0,1,336.681,181.977Z" transform="translate(-242.562 -134.275)" fill="#fff"/><path d="M150.681,205.471l2.7,1.71L151.74,204.2a2.667,2.667,0,0,1,1.631-.582h.043a3.123,3.123,0,0,0,.56-.041l.914.58-.392-.712a3.253,3.253,0,0,0,1.6-1.213l1.636,1.037-1.033-1.879a4.787,4.787,0,0,1,3.665-1.852,5.023,5.023,0,0,1,4.195,2.588,3.136,3.136,0,0,0,2.773,1.495l.091,0c1.878,0,3.4,2.129,3.4,4.756s-1.522,4.756-3.4,4.756a2.552,2.552,0,0,1-1.184-.3,4.907,4.907,0,0,0-4.116-.08,4.29,4.29,0,0,1-3.5.008,4.911,4.911,0,0,0-4.079.079,2.55,2.55,0,0,1-1.172.29c-1.878,0-3.4-2.129-3.4-4.756A6.039,6.039,0,0,1,150.681,205.471Z" transform="translate(-129.143 -148.601)" fill="#fff"/><path d="M400.578,665.864l-.471.471s.157,5.181.314,6.281.785,2.983.314,4.4a5.369,5.369,0,0,0-.471,2.669c.157.157-.157.785-.157.785l1.256-.785,2.041-4.71-.942-5.024Z" transform="translate(-281.671 -432.955)" fill="#6c63ff"/><path d="M400.578,665.864l-.471.471s.157,5.181.314,6.281.785,2.983.314,4.4a5.369,5.369,0,0,0-.471,2.669c.157.157-.157.785-.157.785l1.256-.785,2.041-4.71-.942-5.024Z" transform="translate(-281.671 -432.955)" opacity="0.1"/><path d="M413.361,785.6s0-1.727-.314-2.041-.785-1.413-1.413-1.413a8.857,8.857,0,0,0-2.826.785,2.867,2.867,0,0,1-.314,1.413c-.314.471-2.041,2.355-.314,2.669a4.387,4.387,0,0,0,3.3-.785c.157-.157.785-.314.942-.157S413.361,785.6,413.361,785.6Z" transform="translate(-286.132 -503.863)" fill="#6c63ff"/><path d="M433.906,783.513l.942,1.727s.314,1.57.785,1.727h.471s.471,1.727,1.57,1.57,2.355-.785,2.355-1.1,0-1.256-.471-1.57a22.357,22.357,0,0,1-1.884-1.727l-.785-.785Z" transform="translate(-302.281 -504.598)" fill="#6c63ff"/><path d="M400.642,634.927a2.119,2.119,0,0,0-1.134,1.586c-.087,1.121,1.021,2.177.664,3.244-.2.605-.833,1-1.014,1.61a2.215,2.215,0,0,0,.2,1.437,10.965,10.965,0,0,0,.9,1.743,8.809,8.809,0,0,1,1.7,3.244,1.385,1.385,0,0,1-.306,1.221,2.928,2.928,0,0,1,1.071-.509,13.632,13.632,0,0,0,4.4-2.449,2.745,2.745,0,0,0,1.017-1.351c.24-.965-.493-1.93-.422-2.921a7.347,7.347,0,0,1,.618-1.8,4.638,4.638,0,0,0-.4-3.614,4.312,4.312,0,0,0-2.567-2.232,5.092,5.092,0,0,0-2.594.075A9.531,9.531,0,0,0,400.642,634.927Z" transform="translate(-281.067 -413.528)" fill="#2f2e41"/><path d="M405.291,655.086a4.073,4.073,0,0,1,3.551-2.142c2.512,0,2.041-.157,2.041-.157l-.785,3.14-1.57,1.57Z" transform="translate(-284.832 -424.98)" fill="#6c63ff"/><path d="M406.79,649.584s1.413,2.355.471,3.3a1.521,1.521,0,0,0-.314,2.041c.157.157,4.553.471,4.553.471l.157-2.2.471-1.884s-2.512-.471-2.2-1.57S406.79,649.584,406.79,649.584Z" transform="translate(-285.685 -422.798)" fill="#fbbebe"/><path d="M406.79,649.584s1.413,2.355.471,3.3a1.521,1.521,0,0,0-.314,2.041c.157.157,4.553.471,4.553.471l.157-2.2.471-1.884s-2.512-.471-2.2-1.57S406.79,649.584,406.79,649.584Z" transform="translate(-285.685 -422.798)" opacity="0.1"/><path d="M433.15,706.327a10.827,10.827,0,0,1-.628,1.57c-.157.157-.628-1.1-.628-1.1l.471-1.1Z" transform="translate(-301.054 -457.245)" fill="#fbbebe"/><path d="M320.152,620l.628,3.612h-9.421L311.83,620Z" transform="translate(-189.861 -378.062)" fill="#fbbebe"/><circle cx="2.983" cy="2.983" r="2.983" transform="translate(119.849 222.075)" fill="#fbbebe"/><path d="M405.081,655.55s-1.727.157-1.727-.157-.157-1.256-.471-1.1-2.355.314-2.2.785.471,1.413.157,1.413a1.022,1.022,0,0,0-.785,1.256c.157.785,1.884,5.5,1.884,5.5a4.733,4.733,0,0,0,.628,2.041,1.409,1.409,0,0,1,0,1.727c-.314.314.785.628,1.256,1.256s4.082.157,4.239,0,3.925-.157,4.239-.471-.157-1.256-.157-1.256a7.3,7.3,0,0,1,0-1.884c.157-.471-.628-8.165-1.1-8.636s1.413-1.884,1.413-1.884-.314-1.256-2.355-1.413c0,0-.628-.942-1.256-.942a6.68,6.68,0,0,0-1.992.73s-.363,2.1-.835,2.253a2.588,2.588,0,0,0-.942.785Z" transform="translate(-281.62 -424.367)" fill="#6c63ff"/><path d="M426.87,656.609l1.1.471s3.14,9.735,2.826,11.619-1.1,8.322-1.57,8.322-1.413-.942-1.413-.942v-1.57c0-.314-.471-1.256-.157-1.256s.785-.314.471-.628-.628-.785-.314-1.256.471-.628.314-1.1-.471-.942-.157-1.256-.785-1.884-.785-1.884l-1.727-6.909.314-2.826Z" transform="translate(-297.128 -427.311)" fill="#6c63ff"/><path d="M411.031,692.943s-5.967-.471-6.752-.471a10.265,10.265,0,0,1-2.546-.739,13.4,13.4,0,0,0-2.949,11.887c1.57,7.38,1.884,16.487,2.826,19.156a49.7,49.7,0,0,1,1.57,5.81s1.57-2.826,4.553.314a8.211,8.211,0,0,0-.157-3.3,41.332,41.332,0,0,1-1.1-5.966s-1.1-8.008-1.1-8.95-.628-8.95-.471-9.107.942,6.123,1.1,7.223.628,9.578,1.1,10.52,2.669,8.479,3.925,8.95,5.5-.157,5.338-.471-1.256-2.041-1.57-2.512l-1.256-1.884L410.56,713.2l1.413-12.4S412.758,692.786,411.031,692.943Z" transform="translate(-280.662 -448.728)" fill="#2f2e41"/><path d="M408.407,640.077h-3.826a.681.681,0,0,1-.673-.575l-.38-2.408h5.967l-.533,2.534A.566.566,0,0,1,408.407,640.077Z" transform="translate(-283.757 -415.411)" fill="#2f2e41"/><path d="M824.715,573.834h6.036v8.623h0a6.036,6.036,0,0,1-6.036-6.036v-2.587Z" transform="translate(-502.894 -349.911)" fill="#2f2e41"/><path d="M815.018,703.292l-.431,2.156H817.6l.144-2.156Z" transform="translate(-496.718 -428.852)" fill="#a0616a"/><path d="M903.065,776.263s-.575-.431-.862-.144-1.293,5.893-1.437,6.036-4.455,2.3-3.449,2.443,4.886.287,5.461,0,2.156-3.018,2.156-3.018v2.443h.287s.287-2.587,1.006-3.306-.575-3.162-.575-3.162.287-1.581.144-1.581S903.065,776.263,903.065,776.263Z" transform="translate(-584.765 -500.098)" fill="#6c63ff"/><path d="M837.852,699.425l-.431,2.156h3.018l.144-2.156Z" transform="translate(-510.642 -426.494)" fill="#a0616a"/><path d="M926.281,720.336s1.437,4.312,1.725,4.743,1.294,8.479,1.294,8.479-1.006,1.581.287,1.725.719-.287,1.581,0a1.623,1.623,0,0,0,1.437-.144s.431-.862.144-1.15.287-7.761.287-7.761l-.862-2.587-.719-8.192s.862-2.156.431-2.731-1.868.431-1.868.431Z" transform="translate(-602.52 -461.417)" fill="#2f2e41"/><path d="M913.99,703.788s-.431,4.6-.719,4.886-3.449,8.336-3.449,8.336-.862,1.006-.575,4.743,1.006,7.473,1.006,7.473-.575,2.156.431,2.156,1.437-.575,1.868-.144.719,0,.862-.287a7.7,7.7,0,0,0,.719-1.581c0-.287.575-7.617.575-7.617s4.743-10.492,5.174-11.066,2.874-3.737,2.731-5.893Z" transform="translate(-592.098 -456.08)" fill="#2f2e41"/><circle cx="3.018" cy="3.018" r="3.018" transform="translate(322.468 222.27)" fill="#a0616a"/><path d="M929.228,650.268a32.06,32.06,0,0,1,1.293,3.306c.144.719,2.874-1.437,2.874-1.437s-1.437-2.443-1.006-3.593Z" transform="translate(-604.317 -422.393)" fill="#a0616a"/><path d="M928.277,656.055s-2.156-1.581-3.737,1.725-2.012,3.162-2.012,3.162-1.868.575-1.293,4.6-1.868,9.342-.862,9.629,10.348,1.868,10.348.719-.862-5.605-.144-8.336S929.57,655.337,928.277,656.055Z" transform="translate(-598.767 -426.743)" fill="#3f3d56"/><path d="M929.531,658.487s-1.725,2.587-1.581,4.6.144,3.306.144,3.306-2.874,13.8-2.3,13.8,2.3.719,2.443.287,3.737-9.2,3.737-9.2.862-8.767-.144-10.779S929.531,658.487,929.531,658.487Z" transform="translate(-602.177 -428.456)" fill="#3f3d56"/><path d="M925.873,713s-1.437,4.886.575,5.03.862-4.743.862-4.743Z" transform="translate(-601.968 -461.695)" fill="#a0616a"/><path d="M928.377,770.688s-.5-.378-.755-.126-1.133,5.16-1.259,5.286-3.9,2.014-3.021,2.14a20.188,20.188,0,0,0,4.783,0,13.223,13.223,0,0,0,1.888-2.643v2.14h.252s.252-2.265.881-2.895-.5-2.769-.5-2.769.252-1.384.126-1.384S928.377,770.688,928.377,770.688Z" transform="translate(-600.647 -496.72)" fill="#6c63ff"/><path d="M921.021,634.977a.838.838,0,0,1,.364-.257.76.76,0,0,1,.4.034,4.043,4.043,0,0,1,2.211,1.608,1.241,1.241,0,0,0,.446.482,2.623,2.623,0,0,1,.36.137c.336.222.136.737-.057,1.09a5.5,5.5,0,0,0-.659,2.972.85.85,0,0,0,.151.5.9.9,0,0,0,.6.238,14.755,14.755,0,0,0,2.1.113,2.476,2.476,0,0,0,1.9-.634,2,2,0,0,0,.092-2.1c-.312-.671-.818-1.231-1.179-1.877a11.011,11.011,0,0,1-.8-2.138,8.953,8.953,0,0,0-1.188-2.651,3.554,3.554,0,0,0-2.386-1.53,5.286,5.286,0,0,0-3.559,1.449c-1.178.887-2.432,1.985-2.527,3.457-.077,1.193.639,2.272,1.014,3.407a12.28,12.28,0,0,1,.088,5.484c1.064-.637,2.268-1.523,2.2-2.761a5.887,5.887,0,0,0-1.07-2.242C918.43,637.731,919.66,636.368,921.021,634.977Z" transform="translate(-597.028 -411.667)" fill="#2f2e41"/><path d="M1017.3,657.32a10.336,10.336,0,0,0,1.367-5.24c0-4.736-2.933-8.575-6.55-8.575s-6.55,3.839-6.55,8.575a10.337,10.337,0,0,0,1.367,5.24,10.726,10.726,0,0,0,0,10.481,10.726,10.726,0,0,0,0,10.48,10.726,10.726,0,0,0,0,10.48,10.336,10.336,0,0,0-1.367,5.24c0,4.736,2.933,8.575,6.55,8.575s6.55-3.839,6.55-8.575a10.336,10.336,0,0,0-1.367-5.24,10.726,10.726,0,0,0,0-10.48,10.726,10.726,0,0,0,0-10.48A10.726,10.726,0,0,0,1017.3,657.32Z" transform="translate(-650.869 -419.32)" fill="#3f3d56"/><ellipse cx="6.55" cy="8.575" rx="6.55" ry="8.575" transform="translate(354.703 213.704)" fill="#3f3d56"/><ellipse cx="6.55" cy="8.575" rx="6.55" ry="8.575" transform="translate(354.703 203.223)" fill="#3f3d56"/><path d="M997.633,348.621a31.451,31.451,0,0,0,2.439-3.591L982.861,342.2l18.615.138a31.431,31.431,0,0,0,.6-24.861L977.1,330.436l23.032-16.93a31.378,31.378,0,1,0-51.823,35.115,31.392,31.392,0,0,0-3.578,5.722l22.343,11.607-23.823-8a31.4,31.4,0,0,0,5.059,29.464,31.376,31.376,0,1,0,49.323,0,31.38,31.38,0,0,0,0-38.8Z" transform="translate(-611.859 -208.544)" fill="#f2f2f2"/><path d="M941.593,476.958a31.241,31.241,0,0,0,6.715,19.4,31.376,31.376,0,1,0,49.323,0C1001.838,491.019,941.593,473.437,941.593,476.958Z" transform="translate(-611.857 -317.482)" fill="#f2f2f2"/><path d="M997.633,348.621a31.451,31.451,0,0,0,2.439-3.591L982.861,342.2l18.615.138a31.431,31.431,0,0,0,.6-24.861L977.1,330.436l23.032-16.93a31.378,31.378,0,1,0-51.823,35.115,31.392,31.392,0,0,0-3.578,5.722l22.343,11.607-23.823-8a31.4,31.4,0,0,0,5.059,29.464,31.376,31.376,0,1,0,49.323,0,31.38,31.38,0,0,0,0-38.8Z" transform="translate(-611.859 -208.544)" fill="#57b894"/><path d="M941.593,476.958a31.241,31.241,0,0,0,6.715,19.4,31.376,31.376,0,1,0,49.323,0C1001.838,491.019,941.593,473.437,941.593,476.958Z" transform="translate(-611.857 -317.482)" opacity="0.1"/><path d="M172.306,657.32a10.337,10.337,0,0,0,1.367-5.24c0-4.736-2.933-8.575-6.55-8.575s-6.55,3.839-6.55,8.575a10.337,10.337,0,0,0,1.367,5.24,10.726,10.726,0,0,0,0,10.481,10.726,10.726,0,0,0,0,10.48,10.726,10.726,0,0,0,0,10.48,10.337,10.337,0,0,0-1.367,5.24c0,4.736,2.933,8.575,6.55,8.575s6.55-3.839,6.55-8.575a10.337,10.337,0,0,0-1.367-5.24,10.726,10.726,0,0,0,0-10.48,10.726,10.726,0,0,0,0-10.48A10.726,10.726,0,0,0,172.306,657.32Z" transform="translate(-135.608 -419.32)" fill="#3f3d56"/><ellipse cx="6.55" cy="8.575" rx="6.55" ry="8.575" transform="translate(24.965 213.704)" fill="#3f3d56"/><ellipse cx="6.55" cy="8.575" rx="6.55" ry="8.575" transform="translate(24.965 203.223)" fill="#3f3d56"/><path d="M152.631,348.621a31.446,31.446,0,0,0,2.439-3.591L137.859,342.2l18.615.138a31.431,31.431,0,0,0,.6-24.861L132.1,330.436l23.032-16.93a31.378,31.378,0,1,0-51.823,35.115,31.393,31.393,0,0,0-3.578,5.722l22.341,11.607-23.822-8a31.4,31.4,0,0,0,5.059,29.464,31.376,31.376,0,1,0,49.323,0,31.38,31.38,0,0,0,0-38.8Z" transform="translate(-96.594 -208.545)" fill="#f2f2f2"/><path d="M96.594,476.958a31.241,31.241,0,0,0,6.715,19.4,31.376,31.376,0,1,0,49.323,0C156.836,491.019,96.594,473.437,96.594,476.958Z" transform="translate(-96.595 -317.482)" fill="#f2f2f2"/><path d="M152.631,348.621a31.446,31.446,0,0,0,2.439-3.591L137.859,342.2l18.615.138a31.431,31.431,0,0,0,.6-24.861L132.1,330.436l23.032-16.93a31.378,31.378,0,1,0-51.823,35.115,31.393,31.393,0,0,0-3.578,5.722l22.341,11.607-23.822-8a31.4,31.4,0,0,0,5.059,29.464,31.376,31.376,0,1,0,49.323,0,31.38,31.38,0,0,0,0-38.8Z" transform="translate(-96.594 -208.545)" fill="#57b894"/><path d="M96.594,476.958a31.241,31.241,0,0,0,6.715,19.4,31.376,31.376,0,1,0,49.323,0C156.836,491.019,96.594,473.437,96.594,476.958Z" transform="translate(-96.595 -317.482)" opacity="0.1"/><path d="M539.11,354.556l-15.568,15.568-7.376-7.376-2.872,2.872,10.238,10.238,18.45-18.431Z" transform="translate(-312.996 -218.201)" fill="#57b894"/><path d="M666.11,263.556l-15.568,15.568-7.376-7.376-2.872,2.872,10.238,10.238,18.45-18.431Z" transform="translate(-390.438 -161.711)" fill="#57b894"/><path d="M666.11,263.556l-15.568,15.568-7.376-7.376-2.872,2.872,10.238,10.238,18.45-18.431Z" transform="translate(-390.438 -230.711)" fill="#57b894"/><path d="M666.11,263.556l-15.568,15.568-7.376-7.376-2.872,2.872,10.238,10.238,18.45-18.431Z" transform="translate(-390.438 -126.711)" fill="#57b894"/><path d="M666.11,263.556l-15.568,15.568-7.376-7.376-2.872,2.872,10.238,10.238,18.45-18.431Z" transform="translate(-390.438 -91.711)" fill="#57b894"/><path d="M666.11,263.556l-15.568,15.568-7.376-7.376-2.872,2.872,10.238,10.238,18.45-18.431Z" transform="translate(-440.438 -161.711)" fill="#57b894"/><path d="M666.11,263.556l-15.568,15.568-7.376-7.376-2.872,2.872,10.238,10.238,18.45-18.431Z" transform="translate(-390.438 -195.711)" fill="#57b894"/></g></g></svg>